<?xml version="1.0" encoding="UTF-8" standalone="no"?>
<svg
   xmlns:dc="http://purl.org/dc/elements/1.1/"
   xmlns:cc="http://creativecommons.org/ns#"
   xmlns:rdf="http://www.w3.org/1999/02/22-rdf-syntax-ns#"
   xmlns:svg="http://www.w3.org/2000/svg"
   xmlns="http://www.w3.org/2000/svg"
   xmlns:sodipodi="http://sodipodi.sourceforge.net/DTD/sodipodi-0.dtd"
   xmlns:inkscape="http://www.inkscape.org/namespaces/inkscape"
   version="1.1"
   viewBox="0 0 30 33"
   xml:space="preserve"
   id="svg109053"
   sodipodi:docname="bulb.svg"
   width="30"
   height="33"
   inkscape:version="0.92.4 (5da689c313, 2019-01-14)"><metadata
     id="metadata109059"><rdf:RDF><cc:Work
         rdf:about=""><dc:format>image/svg+xml</dc:format><dc:type
           rdf:resource="http://purl.org/dc/dcmitype/StillImage" /><dc:title></dc:title></cc:Work></rdf:RDF></metadata><defs
     id="defs109057" /><sodipodi:namedview
     pagecolor="#ffffff"
     bordercolor="#666666"
     borderopacity="1"
     objecttolerance="10"
     gridtolerance="10"
     guidetolerance="10"
     inkscape:pageopacity="0"
     inkscape:pageshadow="2"
     inkscape:window-width="2560"
     inkscape:window-height="1387"
     id="namedview109055"
     showgrid="false"
     fit-margin-top="0"
     fit-margin-left="0"
     fit-margin-right="0"
     fit-margin-bottom="0"
     inkscape:zoom="3.6875"
     inkscape:cx="15"
     inkscape:cy="17"
     inkscape:window-x="-8"
     inkscape:window-y="-8"
     inkscape:window-maximized="1"
     inkscape:current-layer="svg109053" /><style
     type="text/css"
     id="style109045">
	.st0{fill:#176284;}
</style><g
     id="Guides_For_Artboard"
     transform="translate(-17,-16)" /><g
     id="Layer_1"
     transform="translate(-17,-16)"><g
       id="g109050"><path
         class="st0"
         d="m 33,20 c 0,0.552713 -0.447304,1 -1,1 v 0 c -0.552704,0 -1,-0.447287 -1,-1 v -3 c 0,-0.552687 0.447296,-1 1,-1 v 0 c 0.552696,0 1,0.447313 1,1 z m 2.438496,22.393612 c 0.333,-0.154301 0.554699,-0.4795 0.576099,-0.846699 0.125,-2.094799 1.0186,-3.568401 1.963901,-5.128002 C 38.972694,34.780312 40,33.085915 40,30.619114 40,26.275413 36.560497,23 31.999,23 27.439495,23 24,26.275413 24,30.619114 c 0,2.466801 1.027296,4.161198 2.021496,5.799797 0.945299,1.559601 1.8379,3.032303 1.963899,5.125 0.0224,0.366303 0.2412,0.690502 0.573201,0.845703 0.594699,0.279297 1.673799,0.611385 3.441404,0.611385 1.763695,0 2.843796,-0.330085 3.438496,-0.607387 z m 7.268505,-20.686611 c 0.390693,-0.390587 0.390693,-1.023388 0,-1.414002 v 0 c -0.390606,-0.390686 -1.023407,-0.390686 -1.414002,0 l -2.121105,2.121115 c -0.390598,0.390598 -0.390598,1.023399 0,1.413999 v 0 c 0.390602,0.390601 1.023403,0.390601 1.414001,0 z M 46,32 c 0.551796,0 1,-0.447287 1,-1 v 0 c 0,-0.552687 -0.448204,-1 -1,-1 h -3 c -0.552704,0 -1,0.447313 -1,1 v 0 c 0,0.552713 0.447296,1 1,1 z M 23.415001,23.828114 c 0.389694,0.3906 1.023495,0.3906 1.414095,0 v 0 c 0.3906,-0.390601 0.3906,-1.023402 0,-1.414 L 22.708,20.292999 c -0.390604,-0.390686 -1.024404,-0.390686 -1.415001,0 v 0 c -0.389704,0.390614 -0.389704,1.023415 0,1.414002 z M 21,32 c 0.552696,0 1,-0.447287 1,-1 v 0 c 0,-0.552687 -0.447304,-1 -1,-1 h -3 c -0.551804,0 -1,0.447313 -1,1 v 0 c 0,0.552713 0.448196,1 1,1 z m 0.292999,8.292999 c -0.390703,0.391613 -0.390703,1.024414 0,1.415001 v 0 c 0.390597,0.390614 1.023398,0.390614 1.414002,0 l 2.121096,-2.122085 c 0.390699,-0.390603 0.390699,-1.023404 0,-1.414002 v 0 c -0.390601,-0.390701 -1.023402,-0.390701 -1.414,0 z M 18,30 c -0.551804,0 -1,0.447313 -1,1 v 0 c 0,0.552713 0.448196,1 1,1 h 3 c 0.552696,0 1,-0.447287 1,-1 v 0 c 0,-0.552687 -0.447304,-1 -1,-1 z m 22.584999,8.171913 c -0.389702,-0.390701 -1.023502,-0.390701 -1.414104,0 v 0 c -0.390599,0.390598 -0.390599,1.023399 0,1.414002 L 41.292,41.708 c 0.390594,0.390614 1.024395,0.390614 1.415001,0 v 0 c 0.389694,-0.390587 0.389694,-1.023388 0,-1.415001 z M 43,30 c -0.552704,0 -1,0.447313 -1,1 v 0 c 0,0.552713 0.447296,1 1,1 h 3 c 0.551796,0 1,-0.447287 1,-1 v 0 c 0,-0.552687 -0.448204,-1 -1,-1 z m -7.099606,13.391613 c -0.693393,0.3232 -1.934597,0.709 -3.900394,0.709 -1.970705,0 -3.213903,-0.388699 -3.909205,-0.714901 -0.0332,-0.0156 -0.0586,-0.041 -0.09079,-0.0586 v 1.673885 l 5,0.498002 v 0.0039 l -5,0.498085 c 0,0.552712 0.447296,1 1,1 C 29,48.105511 30.343796,49 32,49 c 1.656296,0 3,-0.894489 3,-1.999001 0.552696,0 1,-0.447288 1,-1 v -2.672885 c -0.03521,0.0186 -0.0625,0.04689 -0.09961,0.0635 z"
         id="path109048"
         inkscape:connector-curvature="0"
         style="fill:#176284" /></g></g></svg>