<?xml version="1.0" encoding="UTF-8" standalone="no"?>
<svg
   xmlns:dc="http://purl.org/dc/elements/1.1/"
   xmlns:cc="http://creativecommons.org/ns#"
   xmlns:rdf="http://www.w3.org/1999/02/22-rdf-syntax-ns#"
   xmlns:svg="http://www.w3.org/2000/svg"
   xmlns="http://www.w3.org/2000/svg"
   xmlns:sodipodi="http://sodipodi.sourceforge.net/DTD/sodipodi-0.dtd"
   xmlns:inkscape="http://www.inkscape.org/namespaces/inkscape"
   version="1.1"
   viewBox="0 0 32.00008 32.000713"
   xml:space="preserve"
   id="svg112800"
   sodipodi:docname="search.svg"
   width="32.00008"
   height="32.000713"
   inkscape:version="0.92.4 (5da689c313, 2019-01-14)"><metadata
     id="metadata112806"><rdf:RDF><cc:Work
         rdf:about=""><dc:format>image/svg+xml</dc:format><dc:type
           rdf:resource="http://purl.org/dc/dcmitype/StillImage" /><dc:title></dc:title></cc:Work></rdf:RDF></metadata><defs
     id="defs112804" /><sodipodi:namedview
     pagecolor="#ffffff"
     bordercolor="#666666"
     borderopacity="1"
     objecttolerance="10"
     gridtolerance="10"
     guidetolerance="10"
     inkscape:pageopacity="0"
     inkscape:pageshadow="2"
     inkscape:window-width="2560"
     inkscape:window-height="1387"
     id="namedview112802"
     showgrid="false"
     fit-margin-top="0"
     fit-margin-left="0"
     fit-margin-right="0"
     fit-margin-bottom="0"
     inkscape:zoom="3.6875"
     inkscape:cx="16.000034"
     inkscape:cy="16.000368"
     inkscape:window-x="-8"
     inkscape:window-y="-8"
     inkscape:window-maximized="1"
     inkscape:current-layer="svg112800" /><style
     type="text/css"
     id="style112786">
	.st0{fill:#176284;}
	.st1{fill:url(#SVGID_1_);}
	.st2{fill:url(#SVGID_2_);}
	.st3{fill:url(#SVGID_3_);}
	.st4{fill:url(#SVGID_4_);}
	.st5{fill:url(#SVGID_5_);}
	.st6{fill:url(#SVGID_6_);}
	.st7{fill:url(#SVGID_7_);}
	.st8{fill:url(#SVGID_8_);}
	.st9{fill:#FFFFFF;}
	.st10{fill:url(#SVGID_9_);}
	.st11{fill:url(#SVGID_10_);}
	.st12{fill:url(#SVGID_11_);}
	.st13{fill:url(#SVGID_12_);}
	.st14{fill:url(#SVGID_13_);}
	.st15{fill:url(#SVGID_14_);}
	.st16{fill:url(#SVGID_15_);}
	.st17{fill:url(#SVGID_16_);}
	.st18{fill:url(#SVGID_17_);}
	.st19{fill:url(#SVGID_18_);}
	.st20{fill:url(#SVGID_19_);}
	.st21{fill:url(#SVGID_20_);}
	.st22{fill:url(#SVGID_21_);}
	.st23{fill:url(#SVGID_22_);}
	.st24{fill:url(#SVGID_23_);}
	.st25{fill:url(#SVGID_24_);}
	.st26{fill:url(#SVGID_25_);}
	.st27{fill:url(#SVGID_26_);}
	.st28{fill:url(#SVGID_27_);}
	.st29{fill:url(#SVGID_28_);}
	.st30{fill:url(#SVGID_29_);}
	.st31{fill:url(#SVGID_30_);}
	.st32{fill:url(#SVGID_31_);}
	.st33{fill:url(#SVGID_32_);}
	.st34{fill:url(#SVGID_33_);}
	.st35{fill:url(#SVGID_34_);}
	.st36{fill:url(#SVGID_35_);}
	.st37{fill:url(#SVGID_36_);}
	.st38{fill:url(#SVGID_37_);}
	.st39{fill:url(#SVGID_38_);}
	.st40{fill:url(#SVGID_39_);}
	.st41{fill:url(#SVGID_40_);}
</style><g
     id="Guides_For_Artboard"
     transform="translate(-15.999966,-15.999655)" /><g
     id="Layer_1"
     transform="translate(-15.999966,-15.999655)"><g
       id="g112797"><path
         class="st0"
         d="m 25.088779,38.913403 c -0.576196,-0.576199 -1.077196,-1.1983 -1.532297,-1.842801 -2.062502,0.721699 -5.352503,3.775399 -6.390583,4.814499 -1.238319,1.237301 -1.841819,3.108399 0,4.9501 1.840781,1.840901 3.711882,1.2374 4.95018,-9e-4 1.037104,-1.037102 4.086901,-4.3223 4.8125,-6.385799 -0.6474,-0.458001 -1.267599,-0.962899 -1.8398,-1.535099 z"
         id="path112789"
         inkscape:connector-curvature="0"
         style="fill:#176284" /><path
         class="st0"
         d="m 44.202999,19.794203 c -5.068298,-5.068299 -13.30172,-5.0586 -18.38382,0.0244 -5.0839,5.084999 -5.092699,13.315498 -0.0234,18.387699 5.070299,5.068401 13.302719,5.056697 18.384819,-0.0224 5.083,-5.086903 5.0947,-13.3174 0.0224,-18.3897 z M 41.3554,35.357704 c -3.517601,3.516598 -9.21682,3.525398 -12.727619,0.0156 -3.509701,-3.511699 -3.50288,-9.208898 0.0166,-12.729499 3.517599,-3.519499 9.217821,-3.526301 12.727621,-0.0175 3.5107,3.511697 3.502899,9.2099 -0.0166,12.731401 z"
         id="path112791"
         inkscape:connector-curvature="0"
         style="fill:#176284" /><path
         class="st0"
         d="m 41.599499,26.714203 c 0.0098,0.4023 -0.0234,0.826099 -0.1055,1.269501 -0.3134,1.697296 -1.1679,3.533199 -2.588798,4.955101 -1.413101,1.413097 -3.2178,2.243099 -4.897499,2.553699 -0.485321,0.0888 -0.94532,0.1152 -1.378922,0.0947 0.742199,0.2705 1.538121,0.425796 2.37212,0.425796 1.862301,0 3.614201,-0.727596 4.932598,-2.046897 1.326203,-1.3252 2.056603,-3.0889 2.056603,-4.9648 0,-0.8018 -0.142502,-1.569399 -0.390602,-2.2871 z"
         id="path112793"
         inkscape:connector-curvature="0"
         style="fill:#176284" /><path
         class="st0"
         d="m 34.999901,18.000303 c 4.724598,0 8.824199,2.418 10.867199,5.9433 -1.912098,-4.0937 -6.058602,-6.9433 -10.867199,-6.9433 -4.808621,0 -8.95512,2.8496 -10.867218,6.9433 2.042997,-3.525301 6.142597,-5.9433 10.867218,-5.9433 z"
         id="path112795"
         inkscape:connector-curvature="0"
         style="fill:#176284" /></g></g></svg>