<?xml version="1.0" ?><!DOCTYPE svg  PUBLIC '-//W3C//DTD SVG 1.1//EN'  'http://www.w3.org/Graphics/SVG/1.1/DTD/svg11.dtd'><svg enable-background="new 0 0 512 512" height="512px" id="Layer_1" version="1.1" viewBox="0 0 512 512" width="512px" xml:space="preserve" xmlns="http://www.w3.org/2000/svg" xmlns:xlink="http://www.w3.org/1999/xlink"><g><g><path d="M7.9,256C7.9,119,119,7.9,256,7.9C393,7.9,504.1,119,504.1,256c0,137-111.1,248.1-248.1,248.1    C119,504.1,7.9,393,7.9,256z" fill="#337180"/></g><g><path d="M256,504.1c82.2,0,155.1-40,200.2-101.6c-8.4-12-41.4-47.1-152.4-73.9c0-25.2-2.5-40.3-2.5-40.3    S334,242.9,336.5,180c0-10,4.9-81.1-80.6-84.3c0,0,0-0.1,0-0.1c-0.2,0-0.4,0-0.6,0c-0.2,0-0.4,0-0.6,0c0,0,0,0.1,0,0.1    C169.1,98.9,174,169.9,174,180c2.5,63,35.3,108.4,35.3,108.4s-2.5,15.1-2.5,40.3c-108.1,26-142.2,60-151.7,72.8    C100.2,463.6,173.3,504.1,256,504.1z" fill="#448A96"/></g></g></svg>