<?xml version="1.0" encoding="utf-8"?>
<!-- Generator: Adobe Illustrator 23.0.5, SVG Export Plug-In . SVG Version: 6.00 Build 0)  -->
<svg version="1.1" id="Layer_2" xmlns="http://www.w3.org/2000/svg" xmlns:xlink="http://www.w3.org/1999/xlink" x="0px" y="0px"
	 viewBox="0 0 505.53 495.7" style="enable-background:new 0 0 505.53 495.7;" xml:space="preserve">
<style type="text/css">
	.st0{fill:#00588E;}
	.st1{fill:#FDB740;}
	.st2{display:none;}
	.st3{display:inline;fill:#00588E;}
	.st4{display:inline;fill:#FDB740;}
	.st5{display:inline;}
	.st6{fill:#004E7C;}
</style>
<g>
	<path class="st0" d="M394.53,161.57c1.02,1.77,1.84,3.19,2.87,4.97v160.12c-1.02,1.77-1.84,3.19-2.87,4.97l-138.67,80.06
		c-2.05,0-3.69,0-5.74,0l-138.67-80.06c-1.02-1.77-1.84-3.19-2.87-4.97V166.54c1.02-1.77,1.84-3.19,2.87-4.97l138.67-80.06
		c2.05,0,3.69,0,5.74,0L394.53,161.57z M60.76,132.3c-1.02,1.77-1.84,3.19-2.87,4.97v218.66c1.02,1.77,1.84,3.19,2.87,4.97
		l189.36,109.33c2.05,0,3.69,0,5.74,0l189.36-109.33c1.02-1.77,1.84-3.19,2.87-4.97V137.27c-1.02-1.77-1.84-3.19-2.87-4.97
		L255.85,22.97c-2.05,0-3.69,0-5.74,0L60.76,132.3z"/>
	<path class="st1" d="M250.12,123.33L147.7,182.46c-1.02,1.77-1.84,3.19-2.87,4.97v45.28c3.82,2.21,4.78,2.76,8.6,4.97l96.69-55.82
		c2.05,0,3.69,0,5.74,0l20.38,11.77c0.71,0.71,1.39,1.39,2.1,2.1l1.77,3.06v0.01l-1.77,3.06c-0.71,0.71-1.39,1.39-2.1,2.1
		L147.7,278.19c-1.02,1.77-1.84,3.19-2.87,4.97v22.54c1.02,1.77,1.84,3.19,2.87,4.97l102.42,59.13c2.05,0,3.69,0,5.74,0
		l102.42-59.13c1.02-1.77,1.84-3.19,2.87-4.97v-45.28c-3.82-2.21-4.78-2.76-8.6-4.97l-96.69,55.82c-2.05,0-3.69,0-5.74,0
		L229.9,299.6c-0.71-0.71-1.39-1.39-2.1-2.11l-1.77-3.07l0-0.01l1.77-3.06c0.71-0.71,1.39-1.38,2.1-2.09l128.38-74.12
		c1.02-1.77,1.84-3.19,2.87-4.97v-22.74c-1.02-1.77-1.84-3.19-2.87-4.97l-102.42-59.13C253.81,123.33,252.17,123.33,250.12,123.33z"
		/>
</g>
<g class="st2">
	<path class="st3" d="M307.47,566.94c0.25,0.44,0.46,0.79,0.71,1.24v39.81c-0.25,0.44-0.46,0.79-0.71,1.23l-34.47,19.9
		c-0.51,0-0.92,0-1.43,0l-34.47-19.9c-0.25-0.44-0.46-0.79-0.71-1.23v-39.81c0.25-0.44,0.46-0.79,0.71-1.24l34.47-19.9
		c0.51,0,0.92,0,1.43,0L307.47,566.94z M224.49,559.67c-0.25,0.44-0.46,0.79-0.71,1.24v54.36c0.25,0.44,0.46,0.79,0.71,1.23
		l47.07,27.18c0.51,0,0.92,0,1.43,0l47.07-27.18c0.25-0.44,0.46-0.79,0.71-1.23V560.9c-0.25-0.44-0.46-0.79-0.71-1.24l-47.07-27.18
		c-0.51,0-0.92,0-1.43,0L224.49,559.67z"/>
	<path class="st4" d="M271.57,557.44l-25.46,14.7c-0.25,0.44-0.46,0.79-0.71,1.24v11.26c0.95,0.55,1.19,0.69,2.14,1.23l24.04-13.88
		c0.51,0,0.92,0,1.43,0l5.07,2.93c0.18,0.18,0.34,0.34,0.52,0.52l0.44,0.76v0l-0.44,0.76c-0.18,0.18-0.34,0.34-0.52,0.52
		l-31.95,18.45c-0.25,0.44-0.46,0.79-0.71,1.23v5.6c0.25,0.44,0.46,0.79,0.71,1.23l25.46,14.7c0.51,0,0.92,0,1.43,0l25.46-14.7
		c0.25-0.44,0.46-0.79,0.71-1.23v-11.26c-0.95-0.55-1.19-0.69-2.14-1.23l-24.04,13.88c-0.51,0-0.92,0-1.43,0l-5.03-2.9
		c-0.18-0.18-0.35-0.35-0.52-0.52l-0.44-0.76v0l0.44-0.76c0.18-0.18,0.34-0.34,0.52-0.52l31.91-18.43c0.25-0.44,0.46-0.79,0.71-1.23
		v-5.65c-0.25-0.44-0.46-0.79-0.71-1.24l-25.46-14.7C272.49,557.44,272.08,557.44,271.57,557.44z"/>
	<g class="st5">
		<g>
			<path class="st6" d="M362.8,556.33l-24.15,62.67c0.3,0.44,0.4,0.59,0.7,1.03h11.98c0.26-0.18,0.45-0.32,0.71-0.5l5.69-14.22
				c0.26-0.18,0.45-0.32,0.71-0.5h18.88c0.26,0.18,0.45,0.32,0.71,0.5l5.73,14.22c0.26,0.18,0.45,0.32,0.71,0.5h12.02
				c0.3-0.44,0.4-0.59,0.7-1.03l-24.19-62.67c-0.26-0.18-0.45-0.31-0.7-0.48h-8.81C363.25,556.03,363.06,556.16,362.8,556.33z
				 M373.65,594.15h-11.51c-0.3-0.43-0.41-0.58-0.71-1.01l5.75-16.15c0.71,0,0.71,0,1.42,0l5.76,16.15
				C374.06,593.57,373.95,593.72,373.65,594.15z"/>
			<path class="st6" d="M404.69,556.6v62.67c0.29,0.29,0.46,0.46,0.76,0.76h11.38c0.29-0.29,0.46-0.46,0.76-0.76V556.6
				c-0.29-0.29-0.46-0.46-0.76-0.76h-11.38C405.15,556.14,404.98,556.31,404.69,556.6z"/>
		</g>
	</g>
	<g class="st5">
		<g>
			<path class="st6" d="M127.84,564.58l0.21-0.29v-7.55c-0.29-0.29-0.46-0.46-0.76-0.76H80.77c-0.29,0.29-0.46,0.46-0.76,0.76v9.44
				c0.29,0.29,0.46,0.46,0.76,0.76h29.17c0.28,0.54,0.34,0.65,0.62,1.19L79.94,611.5c-0.05,0.15-0.09,0.29-0.14,0.44v7.48
				c0.29,0.29,0.46,0.46,0.76,0.76h47.78c0.29-0.29,0.46-0.46,0.76-0.76v-9.36c-0.29-0.29-0.46-0.46-0.76-0.76H97.86
				c-0.28-0.54-0.34-0.65-0.62-1.19L127.84,564.58z"/>
			<path class="st6" d="M138.55,620.17h11.26c0.29-0.29,0.46-0.46,0.76-0.76v-49.3c-0.29-0.29-0.46-0.46-0.76-0.76h-11.26
				c-0.29,0.29-0.46,0.46-0.76,0.76v49.3C138.09,619.71,138.25,619.88,138.55,620.17z"/>
			<path class="st6" d="M194.46,600.6c0.13-0.42,0.19-0.64,0.32-1.06c0.83-0.43,1.62-0.9,2.35-1.42c1.29-0.91,2.41-1.99,3.33-3.19
				c0.93-1.22,1.65-2.63,2.13-4.2c0.48-1.55,0.72-3.31,0.72-5.23c0-2.6-0.49-4.94-1.46-6.95c-0.97-2.03-2.4-3.75-4.25-5.12
				c-1.81-1.34-4.04-2.37-6.63-3.05c-2.54-0.67-5.46-1.02-8.66-1.02h-20.16c-0.29,0.29-0.46,0.46-0.76,0.76v49.3
				c0.29,0.29,0.46,0.46,0.76,0.76h11.31c0.29-0.29,0.46-0.46,0.76-0.76v-15.56c0.29-0.29,0.46-0.46,0.76-0.76h6.67
				c0.23,0.14,0.42,0.25,0.66,0.38l9.84,16.31c0.23,0.14,0.42,0.25,0.66,0.38h11.88c0.29-0.29,0.46-0.46,0.76-0.76v-0.65
				c-0.01-0.07-0.02-0.13-0.03-0.2l-0.16-0.57c-0.03-0.06-0.05-0.12-0.08-0.18L194.46,600.6z M174.21,580.73
				c0.29-0.29,0.46-0.46,0.76-0.76h7.34c2.9,0,5.03,0.59,6.33,1.75c1.28,1.15,1.9,2.66,1.9,4.64c0,1.88-0.64,3.34-1.95,4.47
				c-1.34,1.16-3.45,1.74-6.28,1.74h-7.34c-0.29-0.29-0.46-0.46-0.76-0.76V580.73z"/>
		</g>
	</g>
</g>
</svg>
